<svg xmlns="http://www.w3.org/2000/svg" width="93" height="93" viewBox="0 0 93 93">
    <defs>
        <clipPath id="0sglmcluaa">
            <rect data-name="Rectangle 6602" width="93" height="93" rx="46.5" transform="translate(266 1880)" style="fill:#000036;opacity:.05"/>
        </clipPath>
    </defs>
    <g data-name="Mask Group 93" transform="translate(-266 -1880)" style="clip-path:url(#0sglmcluaa)">
        <g data-name="Dash Category Icons_Grocery">
            <path data-name="Rectangle 6601" transform="translate(264.139 1878.14)" style="opacity:.1;fill:#efad62" d="M0 0h96.72v96.72H0z"/>
            <path data-name="Path 1415" d="M661.54 189c.436.138.881.255 1.307.42a6.019 6.019 0 0 1 3.505 7.71c-1.225 3.377-2.514 6.732-3.777 10.1-.089.243-.194.482-.291.723a18.538 18.538 0 0 1-3.33 2.3c-.208.127-.413.256-.624.369a.554.554 0 0 1-.624.033 1.565 1.565 0 0 1-.306-.655c-.446-1.39-.954-2.763-1.355-4.17-.208-.731-.276-.758-.98-.544-1.038.318-1.028.315-.691 1.374.462 1.451.919 2.9 1.409 4.345a.958.958 0 0 1 .065.767 1.409 1.409 0 0 1-.669.4 34.316 34.316 0 0 1-7.149 2.143 1.335 1.335 0 0 1-.777.026c-.222-.309-.023-.594.078-.863 1.3-3.466 2.585-6.94 3.906-10.4.535-1.406 1.057-2.82 1.592-4.227.8-2.064 1.511-4.163 2.356-6.209a5.694 5.694 0 0 1 4.12-3.549c.217-.052.446.045.65-.089h.244a2.449 2.449 0 0 0 1.223 0z" transform="translate(-324.753 1706.54)" style="fill:#d58033"/>
            <path data-name="Path 1416" d="M357.908 201.8c.178-1.631 1.374-2.391 3.284-1.949-.9-.932-1.707-1.776-2.525-2.607a2.4 2.4 0 0 1-.778-1.732 2.247 2.247 0 0 1 1.358-2.133 2.146 2.146 0 0 1 2.431.437c.527.479 1.02.995 1.547 1.515.154-.2.073-.424.076-.63.011-.98.054-1.961-.008-2.933a2.534 2.534 0 0 1 1.594-2.777h1.1a2.237 2.237 0 0 1 1.753 2.432c.013 1.135-.015 2.271.014 3.406 0 .016.02.031.046.07.566-.429.988-1.011 1.561-1.426a2.4 2.4 0 0 1 3.654 1.26 2.781 2.781 0 0 1-.145 1.9 2.455 2.455 0 0 1-.637.8 39.243 39.243 0 0 0-3.328 3.529.809.809 0 0 0-.04.289c-.013 3.1.037 6.192-.021 9.285a.369.369 0 0 1-.04.178 44.514 44.514 0 0 0-1.961 2.758c-.3-.039-.357-.3-.453-.519-.8-1.757-1.639-3.5-2.467-5.243a4.556 4.556 0 0 0-4-2.859 1.031 1.031 0 0 1-.586-.138 11.033 11.033 0 0 1-1.44-2.517.355.355 0 0 1 .011-.396z" transform="translate(-61.23 1706.549)" style="fill:#70932d"/>
            <path data-name="Path 1417" d="M794.753 189a1.375 1.375 0 0 1-1.223 0z" transform="translate(-458.089 1706.54)" style="fill:#dc9657"/>
            <path data-name="Path 1418" d="M350.44 500.809c.613-.011.738-.317.735-.914-.027-6.635-.017-13.27-.015-19.9 0-.267.019-.529.029-.792.275-.065.446.137.64.262.624.4 1.23.822 1.849 1.226.708.477.708.478 1.426 0 .553-.368 1.106-.733 1.655-1.106a1.176 1.176 0 0 1 1.767 0 14.668 14.668 0 0 0 1.413.954 2.192 2.192 0 0 1 .3.206.867.867 0 0 0 1.248.018c.667-.495 1.386-.92 2.068-1.4a.847.847 0 0 1 1.107 0c.643.46 1.313.882 1.972 1.32.713.479.708.478 1.432 0 .656-.433 1.313-.867 1.961-1.312a.767.767 0 0 1 1-.03c.207.16.393.19.565-.044.064-.007.142.007.158.06.311 1.012 1.282 1.248 2.035 1.733a21.153 21.153 0 0 0 2.775-1.783.726.726 0 0 1 .807-.055c.921.6 1.85 1.186 2.734 1.84a.84.84 0 0 1 .267.335 2.041 2.041 0 0 1 .1.781q.005 6.209 0 12.418a3.479 3.479 0 0 1-.049.667 23.455 23.455 0 0 0-.089 3.375q-.005 8.123 0 16.245c0 .317.078.659-.171.934-.59.007-1.179.02-1.769.02h-22.651a4.421 4.421 0 0 1-2.228-.49c1.556-.713 2.087-2.2 2.674-3.622a16.348 16.348 0 0 0 1.232-5.562 6.2 6.2 0 0 0-.142-2.044 4.289 4.289 0 0 0-4.556-3.174c-.3.013-.609.026-.914.046-.461-.059-.959.145-1.365-.212z" transform="translate(-54.49 1442.251)" style="fill:#efad62"/>
            <path data-name="Path 1419" d="M683.893 495.534v-13.349a1.284 1.284 0 0 0-.123-.713c.947-.669 1.931-1.283 2.884-1.94a.8.8 0 0 1 1.011.034c.725.492 1.465.96 2.181 1.464a.82.82 0 0 0 1.052.008 11.191 11.191 0 0 1 2.043-1.277c.637-.291.638-.291.638.423 0 10.4-.039 20.806.026 31.208a4.481 4.481 0 0 1-4.7 4.687c-1.666-.082-3.338-.028-5.007-.034a1.217 1.217 0 0 1-.06-.657q-.006-8.265 0-16.53c.033-1.105-.072-2.217.055-3.324z" transform="translate(-358.111 1442.052)" style="fill:#e5984e"/>
            <path data-name="Path 1420" d="m225.451 707.824 1.469.031c.56.123 1.166.141 1.535.689a12.048 12.048 0 0 1-1.739 3.732 22.209 22.209 0 0 1-7.7 7.147 23.123 23.123 0 0 1-2.941 1.473 1.076 1.076 0 0 1-.521.149 16.606 16.606 0 0 1-2.322-9.091 4.564 4.564 0 0 1 6.863-3.541c.187.109.333.3.643.324v-2.317c.3.1.206.362.217.562.024.426.006.853.009 1.28a1.152 1.152 0 0 0 .075.535 1.7 1.7 0 0 0 .649.713c.414.243.512-.262.76-.416.151-.1.254-.267.455-.284a5.183 5.183 0 0 1 2.548-.986z" transform="translate(70.499 1235.236)" style="fill:#e2584b"/>
            <path data-name="Path 1421" d="M239.44 742.5a23.24 23.24 0 0 1 2.337-1.159 28.259 28.259 0 0 0 5.178-3.589 19.375 19.375 0 0 0 5.319-7.725c.261-.147.423.045.584.188a4.651 4.651 0 0 1 1.66 3.536 17.518 17.518 0 0 1-2.348 8.807c-.153.276-.284.6-.645.69a3.97 3.97 0 0 1-3.844.94 8.3 8.3 0 0 1-1.49-.685.907.907 0 0 0-.965.012 4.867 4.867 0 0 1-2.755.826 3.592 3.592 0 0 1-3.031-1.841z" transform="translate(46.617 1213.779)" style="fill:#d54740"/>
            <path data-name="Path 1422" d="m330.748 376.044-2.43-1.593-.374-.485c.98-.785 1.995-1.53 2.983-2.307.505-.4.505-.446.1-.963-.713-.9-.708-.9-1.624-.218-.733.546-1.438 1.127-2.175 1.667-.155.113-.275.319-.521.233a4.848 4.848 0 0 1-.688-5.9c.2-.857.926-1.233 1.561-1.693a3.265 3.265 0 0 1 2.2-.616 13.825 13.825 0 0 1 1.479.215 4.545 4.545 0 0 1 3.078 2.561c.881 1.828 1.727 3.673 2.593 5.508.085.178.2.346.3.519.025.031.067.068.062.1-.138.94-.226 1.886-.309 2.832a12.664 12.664 0 0 1-1.41-.955 1.089 1.089 0 0 0-1.634-.011c-.786-.624-.787-.624-1.624.056-.344.283-.685.568-1.042.829-.152.116-.288.301-.525.221z" transform="translate(-31.619 1546.997)" style="fill:#fe7230"/>
            <path data-name="Path 1423" d="M656.185 408.818a25.232 25.232 0 0 1-2.338 1.637c-.221.158-.412.035-.61-.1-.823-.558-1.663-1.092-2.479-1.66a.568.568 0 0 0-.761 0c-.782.547-1.583 1.065-2.379 1.592-.183.122-.356.288-.6.243-.908-.606-1.828-1.2-2.718-1.827a.64.64 0 0 0-.819-.012.6.6 0 0 1 .341-.857 40 40 0 0 0 4.536-1.065c1.383-.407 2.707-.967 4.039-1.5a5.233 5.233 0 0 0 1.643-.357c.455-.12.2-.5.314-.747a1.047 1.047 0 0 0 .624-.2 34.91 34.91 0 0 0 3.683-2.421.62.62 0 0 1 .229-.062l-2.263 6.144z" transform="translate(-321.353 1512.998)" style="fill:#d07726"/>
            <path data-name="Path 1424" d="M367.6 735.969a16.812 16.812 0 0 0 2.721-7.651 8.174 8.174 0 0 0-.03-2.9 4.086 4.086 0 0 0-1.942-2.674 5.775 5.775 0 0 0-1.472-.718 5.384 5.384 0 0 1 3.827.794 4.18 4.18 0 0 1 1.783 2.933 14.79 14.79 0 0 1-.931 6.6 15.908 15.908 0 0 1-1.3 2.824 2.34 2.34 0 0 1-1.783 1.4 1.849 1.849 0 0 1-.873-.608z" transform="translate(-69.465 1221.06)" style="fill:#ec9f47"/>
            <path data-name="Path 1425" d="M277.865 667.638a1.472 1.472 0 0 1-.274.319c-.315.207-.515.857-.879.631a1.555 1.555 0 0 1-.962-1.482 5.635 5.635 0 0 0-.05-1.862 2.151 2.151 0 0 0-1.84-1.851c-.225-.042-.311-.105-.3-.337q.02-.76 0-1.522c-.007-.278.109-.332.366-.317a4.328 4.328 0 0 1 3.922 3.987c.033.809.013 1.622.017 2.434z" transform="translate(15.541 1276.413)" style="fill:#955735"/>
            <path data-name="Path 1426" d="M321.4 299.89a10.511 10.511 0 0 0-2.218.7.129.129 0 0 1-.1-.079c.057-.247-.1-.427-.2-.624-.87-1.654-1.73-3.315-2.627-4.954-.212-.387-.157-.553.236-.713.486-.194.967-.756 1.4-.624s.535.856.8 1.306a15.761 15.761 0 0 0 1.225 2.156 14.938 14.938 0 0 0 1.484 2.832z" transform="translate(-23.238 1611.283)" style="fill:#88b237"/>
            <path data-name="Path 1427" d="m285.26 328.7.1.079a8.584 8.584 0 0 0-1.541 1.6c-1.5-1.368-2.986-2.756-4.514-4.093-.408-.357-.4-.576-.013-.874a1.047 1.047 0 0 0 .124-.135c.914-1 .907-1 1.942-.062 1.295 1.172 2.6 2.325 3.902 3.485z" transform="translate(10.584 1583.097)" style="fill:#88b237"/>
            <path data-name="Path 1428" d="M340.78 428.814c1.05-.821 2.1-1.638 3.148-2.463.32-.252.6-.418.833.1a2.846 2.846 0 0 0 .394.535c.589.759.582.749-.2 1.337-.824.618-1.635 1.253-2.442 1.892a.682.682 0 0 1-.493.187 12.443 12.443 0 0 1-1.24-1.588z" transform="translate(-45.691 1490.562)" style="fill:#dd5718"/>
            <path data-name="Path 1429" d="m683.911 697.34.006 17.215h-.127V697.34c.042-.056.081-.056.121 0z" transform="translate(-358.13 1243.546)" style="fill:#f0b068"/>
            <path data-name="Path 1430" d="M613.582 281.192a2.367 2.367 0 0 0-.341.856 25.187 25.187 0 0 1-2.818 1.831 1.27 1.27 0 0 1-.2-.927c0-2.33-.02-4.66.011-6.989-.011-2.621-.03-5.243.007-7.864a1.044 1.044 0 0 1 .036-.2 1.434 1.434 0 0 1 .428-.577c1.5-1.5 3-3.008 4.51-4.5.178-.178.325-.509.69-.318l3.4 3.334q-2.757 7.361-5.511 14.722c-.075.206-.14.421-.212.632z" transform="translate(-291.117 1639.64)" style="fill:#4091c8"/>
            <path data-name="Path 1431" d="M726.916 374.227c.307.519.2.832-.427.948a7.2 7.2 0 0 0-1.092.314c-.216.078-.345.037-.437-.162a10.409 10.409 0 0 0-.541-1.8q-.618-1.973-1.279-3.933c-.109-.323-.089-.495.279-.629 1.61-.587 1.6-.6 2.118 1.042.448 1.41.919 2.814 1.379 4.22z" transform="translate(-393.919 1542.944)" style="fill:#c86e23"/>
            <path data-name="Path 1432" d="M762.45 289.526c.032.074-.018.151-.123.2-.074.033-.151.06-.226.089-1.619.611-1.623.612-2.169-1.041-.483-1.461-.941-2.931-1.439-4.386-.125-.366-.1-.553.307-.655.528-.132 1.132-.542 1.537-.39.321.121.406.9.57 1.4.487 1.479.958 2.965 1.439 4.448.031.096.059.193.104.335z" transform="translate(-426.114 1620.637)" style="fill:#c86e23"/>
            <path data-name="Path 1433" d="M491.338 321.547v8.07a5.578 5.578 0 0 1-1.128 1.266c-.637.653-1.285 1.3-1.932 1.942-.22-.005-.3-.185-.406-.33a5.38 5.38 0 0 0-1.9-1.589 5.844 5.844 0 0 0-5.918.317c-.167.107-.337.24-.561.146l.008-9.817a1.364 1.364 0 0 1 .815-.178h10.146c.304.006.618-.055.876.173z" transform="translate(-172.038 1585.966)" style="fill:#63a5d2"/>
            <path data-name="Path 1434" d="M497.628 259.688c-.281.012-.412.242-.58.41q-2.2 2.2-4.4 4.395c-.157.157-.332.294-.5.441a1.311 1.311 0 0 1-.655.056q-3.58.007-7.16 0h-3.373a.977.977 0 0 1-.586-.064c1.223-1.48 2.659-2.758 3.972-4.152a6.19 6.19 0 0 0 1.328-1.215 1.09 1.09 0 0 1 .8-.2q5.119-.006 10.238 0a1.109 1.109 0 0 1 .808.2z" transform="translate(-172.84 1642.456)" style="fill:#579ecf"/>
            <path data-name="Path 1435" d="M456.977 420.406a6.3 6.3 0 0 1 4.141-1.269 5.383 5.383 0 0 1 2.463.731c.557 2.05-.42 5.141-1.972 6.248-.66-.432-1.337-.848-1.978-1.3a.693.693 0 0 0-.961-.01c-.679.51-1.438.915-2.11 1.434a.894.894 0 0 1-1.327-.013 3.343 3.343 0 0 0-.347-.246 5.642 5.642 0 0 1 .246-2.932 7.229 7.229 0 0 1 1.845-2.643z" transform="translate(-149.523 1496.93)" style="fill:#fe9a30"/>
            <path data-name="Path 1436" d="m479.678 321.9 3.954.01c.038.027.051.053.038.08s-.027.039-.039.039h-4.021z" transform="translate(-172.147 1585.485)" style="fill:#62a1bb"/>
            <path data-name="Path 1437" d="M551.562 217.764h-11.854c0-1.24.01-2.48-.011-3.721-.006-.4.089-.575.535-.573q5.4.025 10.8 0c.446 0 .546.164.535.57-.017 1.243-.004 2.484-.005 3.724z" transform="translate(-226.879 1684.251)" style="fill:#d5d8da"/>
            <path data-name="Path 1438" d="M531.49 433.748a13.981 13.981 0 0 1 .98-1.382 6.748 6.748 0 0 0 .9-4.545c-.021-.131-.023-.24.1-.321a5.713 5.713 0 0 1 2.192 1.955 3.135 3.135 0 0 1 .871 2.813c.005.408-.111.606-.488.254a.783.783 0 0 0-1.159 0c-.61.459-1.3.813-1.895 1.292a.94.94 0 0 1-1.501-.066z" transform="translate(-219.404 1489.297)" style="fill:#f18d22"/>
            <path data-name="Path 1439" d="M579.055 419.826a5.918 5.918 0 0 0-.875-2.816c.036-.089.046-.209.111-.273.976-.97 1.961-1.933 2.941-2.9v7.938a14.488 14.488 0 0 1-1.947-1.228c-.269-.166-.052-.508-.23-.721z" transform="translate(-261.932 1501.739)" style="fill:#579ecf"/>
            <path data-name="Path 1440" d="M386.11 478.721c.67-.525 1.364-1.022 2-1.584.453-.4.749-.333 1.018.161.059.107.114.216.172.324-.7.478-1.409.949-2.105 1.436-.518.361-.75-.14-1.085-.337z" transform="translate(-86.981 1444.32)" style="fill:#dd5718"/>
            <path data-name="Path 1441" d="M683.808 664.059h-.119v-2.729c0-.194-.067-.41.117-.569z" transform="translate(-358.026 1276.827)" style="fill:#e8ab66"/>
            <path data-name="Path 1442" d="M524.72 322.12V322h7.821a1.115 1.115 0 0 1-.005.119z" transform="translate(-213.237 1585.394)" style="fill:#75b0d8"/>
        </g>
    </g>
</svg>
