<svg xmlns="http://www.w3.org/2000/svg" width="93" height="93" viewBox="0 0 93 93">
    <defs>
        <clipPath id="cftqx129sa">
            <rect data-name="Rectangle 6604" width="93" height="93" rx="46.5" transform="translate(42 1986)" style="fill:#000036;opacity:.05"/>
        </clipPath>
    </defs>
    <g data-name="Mask Group 94" transform="translate(-42 -1986)" style="clip-path:url(#cftqx129sa)">
        <g data-name="Dash Category Icons_Grooming">
            <path data-name="Rectangle 6603" transform="translate(41.999 1984.14)" style="opacity:.1;fill:#ff5d5d" d="M0 0h94.86v96.72H0z"/>
            <path data-name="Path 1443" d="M728.559 606.39s.162 9.259.162 10.234a1.4 1.4 0 0 1-.812 1.3H712.86s3.845-2.437 10.016-6.5a1.062 1.062 0 0 0 .488-1.3l-2.317-10.276c6.899 2.114 7.512 6.542 7.512 6.542z" transform="translate(-608.358 1438.308)" style="fill:#4a4a56"/>
            <path data-name="Path 1444" d="M607.853 605.709a1.062 1.062 0 0 1-.488 1.3c-6.171 4.062-10.016 6.5-10.016 6.5h-1.2l-9.41-6.173a1.992 1.992 0 0 1-.488-2.44c1.6-7.188 2.186-9.291 2.206-9.358.463-.145.906-.267 1.311-.377l1.185 2.35 1.743 3.464 1.193 2.356 3.085 6.118 2.924-6.118 1.126-2.356 1.7-3.565 1.148-2.41c.592.128 1.144.275 1.662.433z" transform="translate(-492.846 1442.726)" style="fill:#676b7f"/>
            <path data-name="Path 1445" d="M607.281 409.55c.038.98.055 2.139.055 3.521 0 6.823-5.849 10.4-5.849 10.4-5.848 3.573-10.071 0-10.071 0-1.625-.813-3.736-3.25-5.036-6.011-1.142-2.429-.9-2.972-.83-6.823 0 0 3.754-1.625 7 0s8.829 4.001 14.731-1.087z" transform="translate(-492.33 1611.647)" style="fill:#eecbbe"/>
            <path data-name="Path 1446" d="M606.6 282.783c.882 1.639 1.276 2.984 1.407 6.389-5.9 5.088-11.479 2.709-14.727 1.084s-7 0-7 0c.011-.528.018-1.119.018-1.783 0-5.526 2.763-8.772 7.147-10.559 7.635-2.114 12.021 2.758 13.155 4.869z" transform="translate(-493.059 1732.025)" style="fill:#444"/>
            <path data-name="Path 1447" d="m714.865 573.285-1.148 2.406-1.693-.466-2.284 2.006-1.839-1.641 5.1-4.431v1.787c.658.095 1.28.21 1.864.339z" transform="translate(-603.84 1464.441)" style="fill:#676b7f"/>
            <path data-name="Path 1448" d="m732.509 617.2-1.7 3.564-2.275-2.024 2.284-2.006z" transform="translate(-622.631 1422.932)" style="fill:#676b7f"/>
            <path data-name="Path 1449" d="M662.161 565.7v.487l-5.1 4.43-4.974-4.43v-.487s4.227 3.573 10.074 0z" transform="translate(-553.004 1469.414)" style="fill:#ffdcd5"/>
            <path data-name="Path 1450" d="m668.947 624.531-1.128 2.36-3.086-2.816-2.922 2.816-1.191-2.36 2.38-2.065 1.838-1.6 1.839 1.637z" transform="translate(-560.774 1419.161)" style="fill:#eefdff"/>
            <path data-name="Path 1451" d="m679.989 659.646-2.924 6.118-3.085-6.118 2.922-2.816z" transform="translate(-572.943 1386.406)" style="fill:#eefdff"/>
            <path data-name="Path 1452" d="m629.929 571.16 4.974 4.431-1.837 1.6-2.325-1.961-1.795.575-1.185-2.35c1.268-.336 2.168-.5 2.168-.5z" transform="translate(-530.842 1464.441)" style="fill:#676b7f"/>
            <path data-name="Path 1453" d="M553.392 619.035h-14.123l-.159-13.97a.157.157 0 0 0 .16-.162c1-1.821 3.993-3.08 6.43-3.833-.02.068-.609 2.17-2.206 9.358a1.989 1.989 0 0 0 .487 2.437z" transform="translate(-450.093 1437.197)" style="fill:#4a4a56"/>
            <path data-name="Path 1454" d="m645.18 618.7-2.38 2.06-1.74-3.46 1.795-.575z" transform="translate(-542.957 1422.932)" style="fill:#676b7f"/>
            <path data-name="Path 1455" d="m220.341 574.942.159 13.971h-4.546v-8.773c0-1.624-.488-1.949-1.625-2.763a9.652 9.652 0 0 0-8.934.488c-8.289-3.736-10.414 1.462-10.414 1.462v9.587h-4.044c-1.95 0-1.625-1.3-1.625-1.3s0-.163-.162-6.986c.324-2.923.162-2.923.65-4.224a4.969 4.969 0 0 1 1.742-2.61l.045.011s2.111-1.462 3.086-1.949 5.526-1.783 5.526-1.783V568c.054.04.108.083.163.123 2.274 1.3 4.061 2.6 7.96 1.137a13.235 13.235 0 0 0 2.177-1.22l-.065 2.032s5.682 1.136 8.768 3.408l1.137 1.462z" transform="translate(-131.324 1467.319)" style="fill:#ffdcd5"/>
            <path data-name="Path 1456" d="m434.627 474.331 2.055 13.645c-3.086-2.274-8.772-3.412-8.772-3.412l.065-2.032a12.82 12.82 0 0 0 5.437-8.4q.604.105 1.215.199z" transform="translate(-348.804 1552.823)" style="fill:#444"/>
            <path data-name="Path 1457" d="M260.882 294.985c-5.822-1.028-11.223-2.852-14.11-4.672-1.28 1.815-4.447 3.551-6.47 4.529-1.058.511-1.8.816-1.8.816l.312-2.1v-2.108c-.488-6.173 1.949-9.422 4.545-11.534 3.9-3.087 8.934-3.411 13.97-.162 6.335 4.386 4.545 13.97 4.545 13.97l.219 1.463a76.412 76.412 0 0 1-1.211-.202z" transform="translate(-176.276 1731.968)" style="fill:#444"/>
            <path data-name="Path 1458" d="M275.533 667.166v8.773H254.56v-9.585s2.129-5.2 10.415-1.462a9.651 9.651 0 0 1 8.934-.487c1.137.811 1.624 1.138 1.624 2.761z" transform="translate(-190.905 1380.294)" style="fill:#ff5d5d"/>
            <path data-name="Path 1459" d="M279.272 426.382a12.808 12.808 0 0 1-5.437 8.4 13.24 13.24 0 0 1-2.177 1.22c-3.9 1.462-5.686.162-7.96-1.137-.055-.04-.109-.083-.163-.123-5.032-3.874-4.845-8.506-4.845-8.506 2.022-.98 5.19-2.714 6.47-4.529 2.889 1.826 8.29 3.647 14.112 4.675z" transform="translate(-194.666 1600.571)" style="fill:#ffdcd5"/>
            <path data-name="Path 1460" d="M224.652 481.03v2.07s-4.545 1.3-5.526 1.783-3.086 1.949-3.086 1.949l-.04-.011 2.005-13.488s.744-.3 1.8-.816c.003.003-.185 4.635 4.847 8.513z" transform="translate(-155.781 1554.289)" style="fill:#444"/>
        </g>
    </g>
</svg>
