<svg xmlns="http://www.w3.org/2000/svg" xmlns:xlink="http://www.w3.org/1999/xlink" width="93" height="93" viewBox="0 0 93 93">
  <defs>
    <style>
      .cls-1 {
        fill: #000036;
        opacity: 0.05;
      }

      .cls-2 {
        clip-path: url(#clip-path);
      }

      .cls-3 {
        fill: #78b2ba;
        opacity: 0.1;
      }

      .cls-4 {
        fill: #a9c1cb;
      }

      .cls-5 {
        fill: #fb774b;
      }

      .cls-6 {
        fill: #e0f8fe;
      }

      .cls-7 {
        fill: #c1e7ee;
      }

      .cls-8 {
        fill: #dd5324;
      }

      .cls-9 {
        fill: #86a0a8;
      }

      .cls-10 {
        fill: #869fa7;
      }

      .cls-11 {
        fill: #86a0a7;
      }
    </style>
    <clipPath id="clip-path">
      <rect id="Rectangle_6609" data-name="Rectangle 6609" class="cls-1" width="93" height="93" rx="46.5" transform="translate(154 1986)"/>
    </clipPath>
  </defs>
  <g id="Mask_Group_96" data-name="Mask Group 96" class="cls-2" transform="translate(-154 -1986)">
    <g id="Dash_Category_Icons_Medicines" data-name="Dash Category Icons_Medicines" transform="translate(152.139 1984.14)">
      <rect id="Rectangle_6608" data-name="Rectangle 6608" class="cls-3" width="96.72" height="96.72" transform="translate(0 0)"/>
      <path id="Path_1487" data-name="Path 1487" class="cls-4" d="M292.907,199.863a3.42,3.42,0,0,1-2.692-.9,2.537,2.537,0,0,1-.753-1.81c0-2.139.039-4.283-.017-6.423A2.865,2.865,0,0,1,291.309,188c.089-.034.2-.037.251-.145h22.063a9.739,9.739,0,0,1,1.095.629,2.589,2.589,0,0,1,1,2c0,2.221.011,4.441,0,6.661a2.639,2.639,0,0,1-2.215,2.608,32.5,32.5,0,0,1-6.27.3c-4.506.017-9.012.007-13.518.005A1.029,1.029,0,0,1,292.907,199.863Z" transform="translate(-264.179 -170.552)"/>
      <path id="Path_1488" data-name="Path 1488" class="cls-5" d="M251.46,499.01q.006-5.7.013-11.394,0-8.607-.012-17.214c.31-.334.721-.233,1.1-.234q9.364-.009,18.727,0h7.283a3.112,3.112,0,0,1,.913.068.573.573,0,0,1,.207.133,1.542,1.542,0,0,1,.147.891q.005,12.923-.007,25.839a3.15,3.15,0,0,1-.408,2,1.359,1.359,0,0,1-.775.122H252.261a1.907,1.907,0,0,1-.607-.054A.612.612,0,0,1,251.46,499.01Z" transform="translate(-229.579 -427.696)"/>
      <path id="Path_1489" data-name="Path 1489" class="cls-6" d="M279.229,335.877c-.244.009-.488.025-.734.025H251.964c-.267,0-.529.026-.793.039.042-1.473-.225-2.968.321-4.407a12.082,12.082,0,0,1,1.821-2.717c1.541-2.111,3.133-4.184,4.705-6.272l14.344-.005a2.094,2.094,0,0,1,.675.6c1.7,2.237,3.37,4.5,5.126,6.693a5.832,5.832,0,0,1,1.344,4.011c-.019.468.007.937-.008,1.405C279.49,335.491,279.526,335.759,279.229,335.877Z" transform="translate(-229.289 -293.238)"/>
      <path id="Path_1490" data-name="Path 1490" class="cls-5" d="M630.557,485.272q.006,6.63.012,13.261a.745.745,0,0,1-.1.47c-.282-.26-.2-.607-.2-.922q-.011-5.7,0-11.395c0-.2,0-.408,0-.612,0-.357-.178-.512-.535-.512h-3.185c-.425,0-.578.2-.574.6.005.735,0,1.471,0,2.206,0,2.858-.021,5.718.005,8.577a13.013,13.013,0,0,1-2.032,7.57,11.488,11.488,0,0,1-7.059,5.024.446.446,0,0,0-.16.089,11.869,11.869,0,0,1-5.532-2.545.608.608,0,0,1,.083-.524,7.163,7.163,0,0,0,.732-3.727,9.293,9.293,0,0,0-.1-1.885,6.427,6.427,0,0,1-.045-1.039V473.578a2.176,2.176,0,0,1,.137-1.139.15.15,0,0,1,.212-.038,1.579,1.579,0,0,1,.166,1.006q.008,5.3,0,10.592c0,1.062,0,1.061,1.09,1.063,4.1.011,8.2-.023,12.305.016,1.366-.033,2.732-.012,4.1-.011A.84.84,0,0,1,630.557,485.272Z" transform="translate(-557.225 -429.716)"/>
      <path id="Path_1491" data-name="Path 1491" class="cls-6" d="M611.2,368.893c-.243.017-.487.047-.73.047-4.043,0-8.086-.01-12.128.015-.568,0-.751-.1-.747-.718.028-4.062.008-8.126,0-12.188a.971.971,0,0,1-.164-.694c0-.63,0-1.26,0-1.89a5.615,5.615,0,0,0-1.537-3.623c-.315-.372-.755-.7-.741-1.274a12.052,12.052,0,0,1,6.335-3.8c.138-.033.273-.079.408-.12a10.991,10.991,0,0,1,6.018,3.282,11.694,11.694,0,0,1,3.357,7.242c.1,1.02.1,2.036.1,3.054q.008,4.866,0,9.731C611.378,368.278,611.453,368.619,611.2,368.893Z" transform="translate(-542.643 -313.377)"/>
      <path id="Path_1492" data-name="Path 1492" class="cls-7" d="M285.68,792.294a9.313,9.313,0,0,1-.644,5.577c-.077.144-.154.285-.231.428a6.533,6.533,0,0,1-5.578,2.709c-6.883-.053-13.767-.016-20.65-.02a6.123,6.123,0,0,1-5.484-3.922,1.271,1.271,0,0,1-.033-.242c.036-.281.267-.267.46-.3a5.774,5.774,0,0,1,.8-.02h20.333a5.832,5.832,0,0,0,5.237-2.95,2.577,2.577,0,0,0,.249-.49c.1-.281,0-.43-.3-.452-.244-.018-.489-.012-.734-.012q-12.616,0-25.232-.008c-.357,0-.784.163-1.031-.279.429-.006.856-.018,1.285-.018h25.793c.244,0,.489-.01.734-.014a.967.967,0,0,1,.688-.19q1.826-.011,3.654,0A.949.949,0,0,1,285.68,792.294Z" transform="translate(-230.836 -720.938)"/>
      <path id="Path_1493" data-name="Path 1493" class="cls-7" d="M680.12,367.464c0-4.221.065-8.445-.017-12.665a11.625,11.625,0,0,0-2.75-7.452,11.837,11.837,0,0,0-6.117-3.89.683.683,0,0,1-.416-.233,12.432,12.432,0,0,1,12.347,5.576,12.018,12.018,0,0,1,1.734,6.515q.009,6.095-.007,12.19Z" transform="translate(-611.563 -311.949)"/>
      <path id="Path_1494" data-name="Path 1494" class="cls-8" d="M673.138,642.183c-.124-.236.065-.2.2-.237a11.827,11.827,0,0,0,8.614-9.251,17.5,17.5,0,0,0,.245-3.346c-.012-3.594.005-7.188-.014-10.784,0-.5.124-.675.644-.659q1.683.056,3.369,0c.524-.017.7.113.7.672-.031,4.247-.029,8.495-.036,12.745a1.911,1.911,0,0,0,.029.242,11.829,11.829,0,0,1-10.094,10.652A13.415,13.415,0,0,1,673.138,642.183Z" transform="translate(-613.637 -562.277)"/>
      <path id="Path_1495" data-name="Path 1495" class="cls-6" d="M251.413,793.937c.218.17.473.089.713.089q13.083.008,26.166,0c.914,0,.98.064.557.853a5.867,5.867,0,0,1-5.374,3.427c-7.027.032-14.054.011-21.079.016-.254,0-.535-.1-.759.12a9.09,9.09,0,0,1-.357-3.29q.008-.642.014-1.282Z" transform="translate(-229.409 -722.56)"/>
      <path id="Path_1496" data-name="Path 1496" class="cls-7" d="M498.722,327.335c.541.729,1.079,1.459,1.623,2.186a4.6,4.6,0,0,1,.817,2.679c.033.871.006,1.743.006,2.616l-.122.007a.88.88,0,0,1-.624.178q-1.759.016-3.521,0a.881.881,0,0,1-.624-.178l-.121-.039a11.97,11.97,0,0,0,.058-3.153c-.079-1.492-1.061-2.509-1.893-3.6q-2.51-3.3-5.032-6.578c2.084-.007,4.169.036,6.25-.11-.251.207-.548.078-.823.115-.115.015-.261-.043-.332.083s.062.215.132.307Q496.617,324.589,498.722,327.335Z" transform="translate(-446.212 -292.145)"/>
      <path id="Path_1497" data-name="Path 1497" class="cls-9" d="M372.26,221.78a15.815,15.815,0,0,1,.122-2.655.872.872,0,0,1,.853-.733.787.787,0,0,1,.848.654,21.767,21.767,0,0,1,.037,5.1c-.053.535-.422.72-.891.713a.8.8,0,0,1-.861-.692A17.123,17.123,0,0,1,372.26,221.78Z" transform="translate(-339.612 -198.372)"/>
      <path id="Path_1498" data-name="Path 1498" class="cls-9" d="M427.847,221.82a16.888,16.888,0,0,1-.106,2.389.8.8,0,0,1-.869.681.781.781,0,0,1-.882-.663,3.333,3.333,0,0,1-.1-.78,34.486,34.486,0,0,1,.115-4.259.84.84,0,0,1,.883-.76.856.856,0,0,1,.844.741A16.7,16.7,0,0,1,427.847,221.82Z" transform="translate(-388.449 -198.405)"/>
      <path id="Path_1499" data-name="Path 1499" class="cls-10" d="M481.4,221.879V224.2a.8.8,0,0,1-.713.909.826.826,0,0,1-1.046-.682,2.2,2.2,0,0,1-.077-.477c-.006-1.387-.013-2.775,0-4.161.008-.819.651-1.321,1.3-1.041a.789.789,0,0,1,.535.8C481.393,220.329,481.4,221.1,481.4,221.879Z" transform="translate(-437.348 -198.629)"/>
      <path id="Path_1500" data-name="Path 1500" class="cls-10" d="M535.037,221.958c0,.734-.005,1.468,0,2.2a.818.818,0,0,1-.732.954.856.856,0,0,1-1.055-.759,1.708,1.708,0,0,1-.051-.421c0-1.346-.013-2.691,0-4.037.011-.906.593-1.419,1.267-1.159a.8.8,0,0,1,.571.835C535.026,220.368,535.037,221.163,535.037,221.958Z" transform="translate(-486.202 -198.627)"/>
      <path id="Path_1501" data-name="Path 1501" class="cls-11" d="M320.422,221.685c0,.754-.016,1.509.005,2.263a.748.748,0,0,1-.75.853.825.825,0,0,1-1-.671,6.824,6.824,0,0,1-.089-1.824,22.76,22.76,0,0,1,.06-3.049.948.948,0,0,1,.955-.922c.48-.017.812.467.815,1.086C320.424,220.177,320.422,220.93,320.422,221.685Z" transform="translate(-290.707 -198.321)"/>
      <path id="Path_1502" data-name="Path 1502" class="cls-8" d="M565.144,472.62h4.774q.009,6.4.017,12.807,0,7.932-.008,15.871l-5.027-.012a10.673,10.673,0,0,0,.23-2.055q-.008-12.908,0-25.816C565.127,473.149,565.138,472.885,565.144,472.62Z" transform="translate(-515.083 -429.942)"/>
      <path id="Path_1503" data-name="Path 1503" class="cls-6" d="M369.511,580.855c0-.47-.036-.943.01-1.408.054-.535-.165-.648-.657-.63-1,.036-2,0-3,.017-.45.01-.616-.156-.606-.61q.035-1.562,0-3.125c-.009-.432.16-.575.578-.567,1.041.018,2.084-.013,3.125.014.423.011.572-.113.561-.547-.028-1.021.005-2.043-.015-3.064-.01-.456.118-.675.624-.661,1.021.028,2.042.024,3.063,0,.463-.011.618.194.614.624-.009,1.042.013,2.084-.011,3.126-.009.4.109.535.517.525,1.021-.026,2.043.007,3.063-.016.457-.011.672.108.657.615-.031,1.021-.029,2.043,0,3.063.014.5-.191.636-.653.624-1.021-.022-2.043.01-3.064-.015-.4-.009-.529.113-.519.518.026,1.021,0,2.042.013,3.063.008.458-.136.666-.633.651-1.021-.029-2.043-.025-3.064,0-.452.011-.624-.149-.6-.6C369.535,581.919,369.511,581.39,369.511,580.855Z" transform="translate(-333.232 -518.892)"/>
    </g>
  </g>
</svg>
