<svg xmlns="http://www.w3.org/2000/svg" xmlns:xlink="http://www.w3.org/1999/xlink" width="93" height="93" viewBox="0 0 93 93">
  <defs>
    <style>
      .cls-1 {
        fill: #000036;
        opacity: 0.05;
      }

      .cls-2 {
        clip-path: url(#clip-path);
      }

      .cls-3, .cls-5 {
        fill: #6ebf8b;
      }

      .cls-3 {
        opacity: 0.1;
      }

      .cls-4 {
        fill: #ffbf9e;
      }

      .cls-6 {
        fill: #58af75;
      }

      .cls-7 {
        fill: #4a4a56;
      }

      .cls-8 {
        fill: url(#linear-gradient);
      }

      .cls-9 {
        fill: #fff;
      }

      .cls-10 {
        fill: #83d69f;
      }
    </style>
    <clipPath id="clip-path">
      <rect id="Rectangle_6520" data-name="Rectangle 6520" class="cls-1" width="93" height="93" rx="46.5" transform="translate(42 647)"/>
    </clipPath>
    <linearGradient id="linear-gradient" y1="0.5" x2="1" y2="0.5" gradientUnits="objectBoundingBox">
      <stop offset="0" stop-color="#ffbf9e"/>
      <stop offset="0.99" stop-color="#dd8c68"/>
    </linearGradient>
  </defs>
  <g id="Mask_Group_72" data-name="Mask Group 72" class="cls-2" transform="translate(-42 -647)">
    <g id="Dash_Category_Icons_Personal_Loan" data-name="Dash Category Icons_Personal Loan" transform="translate(40.14 645.14)">
      <rect id="Rectangle_6519" data-name="Rectangle 6519" class="cls-3" width="96.72" height="96.72" transform="translate(0)"/>
      <path id="Path_1184" data-name="Path 1184" class="cls-4" d="M360.057,611.336s-11.894,11.734-13.341,12.7c-5.786,4.5-10.286,4.117-10.286,4.117H309.78a3.344,3.344,0,0,0,2.7-3.281V610.5a3.331,3.331,0,0,0-.713-2.057l.468-.08,1.775-.643s1.529-.673,3.3-1.263a18.387,18.387,0,0,1,3.285-.826c2.571-.322,4.5-.161,8.037,1.286,4.019,1.768,9,4.34,9,4.34a4.362,4.362,0,0,1,2.437,2.971,5.162,5.162,0,0,1-.026,2.173c.8-.322,10.769-9.162,11.734-9.965.934-.778,2.911-2.274,3.03-2.366h.006c2.537-1.544,4.284-.113,5.4.843C363.11,608.121,360.057,611.336,360.057,611.336Z" transform="translate(-282.452 -549.053)"/>
      <path id="Path_1185" data-name="Path 1185" class="cls-5" d="M386.41,339.6c.019-.013.04-.024.059-.036-.122.089-2.1,1.588-3.03,2.366-.964.8-10.93,9.644-11.734,9.965a4.369,4.369,0,0,0-2.411-5.144s-4.982-2.571-9-4.34c-3.536-1.446-5.465-1.6-8.037-1.286a31.194,31.194,0,0,0-6.592,2.089v-.321c-1.768-4.179-1.125-9.483-.322-13.02.322-4.982,13.5-16.874,13.5-16.874h13.5s6.911,6.108,10.606,11.091C387.937,330.838,386.41,339.6,386.41,339.6Z" transform="translate(-314.109 -284.548)"/>
      <path id="Path_1186" data-name="Path 1186" class="cls-6" d="M492.884,189.891c2.25.964,1.768,2.411,1.768,2.411l-2.571,7.718h-13.5s-1.447-4.021-2.414-7.076a2.218,2.218,0,0,1,3.054-2.893c.8.643.8.8,1.446.8s1.768-1.125,2.733-1.6c3.857-.965,4.983.8,5.626,1.285s1.126.644,1.6.322A2.528,2.528,0,0,1,492.884,189.891Z" transform="translate(-433.844 -171.569)"/>
      <path id="Path_1187" data-name="Path 1187" class="cls-7" d="M202.373,643.827v15.247a3.547,3.547,0,0,1-2.858,3.481,3.464,3.464,0,0,1-.685.067h-6.382a3.547,3.547,0,0,1-3.547-3.548V643.827a3.546,3.546,0,0,1,3.547-3.547h6.379A3.55,3.55,0,0,1,202.373,643.827Z" transform="translate(-172.346 -582.659)"/>
      <path id="Path_1188" data-name="Path 1188" class="cls-8" d="M427.4,638.982l12.216,3.861s6.108.16,5.3-5.626c-.8-2.733-3.054-3.376-5.625-4.661-4.661-2.25-7.716-3.7-9.484-3.857a12.985,12.985,0,0,0-4.982,0,97.04,97.04,0,0,1,0,10.286Z" transform="translate(-387.248 -571.877)"/>
      <path id="Path_1189" data-name="Path 1189" class="cls-9" d="M534.508,405H522.64v2.12h2.217c2.754,0,4.5.73,4.93,2.643H524.82l-2.18.149v1.373h7.231c-.208,2.513-2.012,3.685-5.014,3.685H522.64v2.119h2.429l5.547,7.872h2.964l-5.9-8.126a5.709,5.709,0,0,0,4.764-5.55h2.068v-1.522h-2.139a4.6,4.6,0,0,0-2.3-3.242h4.439Z" transform="translate(-476.34 -368.348)"/>
      <path id="Path_1190" data-name="Path 1190" class="cls-10" d="M393.24,400.43s-8.357,12.216-5.785,19.931C384.882,420.843,384.078,405.894,393.24,400.43Z" transform="translate(-351.639 -364.186)"/>
      <path id="Path_1191" data-name="Path 1191" class="cls-10" d="M695.34,461.74s4.34,4.341.643,11.573C700.484,470.42,698.875,462.062,695.34,461.74Z" transform="translate(-633.648 -420.031)"/>
    </g>
  </g>
</svg>
