<svg xmlns="http://www.w3.org/2000/svg" width="93" height="93" viewBox="0 0 93 93">
    <defs>
        <clipPath id="5sm34po3va">
            <rect data-name="Rectangle 6607" width="93" height="93" rx="46.5" transform="translate(266 1986)" style="fill:#000036;opacity:.05"/>
        </clipPath>
    </defs>
    <g data-name="Mask Group 95" transform="translate(-266 -1986)" style="clip-path:url(#5sm34po3va)">
        <g data-name="Dash Category Icons_Two Wheeler" transform="translate(264.139 1984.14)">
            <path data-name="Rectangle 6605" style="fill:#78b2ba;opacity:.1" d="M0 0h96.72v96.72H0z"/>
            <path data-name="Path 1461" d="m452 710.28 1.227.31a1.442 1.442 0 0 1 .891 1.034 33.374 33.374 0 0 1-.044 4.265.5.5 0 0 1-.247.257 1.219 1.219 0 0 0-.684 1.248.649.649 0 0 1-.168.561c-.7-.143-.968-.467-.971-1.23q-.004-3.22-.004-6.445z" transform="translate(-411.243 -646.42)" style="fill:#c9dce9"/>
            <path data-name="Path 1462" d="m605.136 710.948.836-.148c.005 2.173.02 4.347.011 6.52 0 .671-.3.974-.966 1.111a.545.545 0 0 1-.165-.5 1.31 1.31 0 0 0-.774-1.375.37.37 0 0 1-.153-.178 32.356 32.356 0 0 1-.057-4.259 2.315 2.315 0 0 1 .986-1.236.34.34 0 0 1 .282.065z" transform="translate(-549.538 -646.893)" style="fill:#c9dce9"/>
            <rect data-name="Rectangle 6606" width="15.641" height="2.76" rx="1.38" transform="translate(40.818 69.006)" style="fill:#cfd0d1"/>
            <path data-name="Path 1463" d="M519.292 738.864c-.1 1.232.072 2.471-.107 3.7a3.616 3.616 0 0 1-2.785 3.149c-.081.021-.156.028-.178.123h-1.594c-.412-.315-1-.323-1.342-.754a1.339 1.339 0 0 1-.206-.873V732.74c0-.924.107-1.021 1.012-1.027h1.711c1.017-.058 2.037.044 3.053-.077a.606.606 0 0 1 .464.11 1.083 1.083 0 0 1 .157.7c0 .955.022 1.909-.01 2.864.031.955.011 1.912.011 2.867a.958.958 0 0 1-.186.687z" transform="translate(-466.879 -665.865)" style="fill:#2a3a4c"/>
            <path data-name="Path 1464" d="M393.181 360.556a19.271 19.271 0 0 1-3.251-1.026 4.481 4.481 0 0 1-2.481-4.069c-.047-3.54-.005-7.082 0-10.623a1.094 1.094 0 0 1 .815-.174c.9-.011 1.8.013 2.7-.01.96-.025 1.289-.357 1.3-1.3q.013-1.377 0-2.753c-.013-1.047-.274-1.308-1.3-1.316-.9-.006-1.8 0-2.7 0a1.035 1.035 0 0 1-.81-.188 23.449 23.449 0 0 1 .339-5.891c.987-3.754 4.758-6.832 8.439-6.851.593-.045.718.041.783.7q.142 1.46.267 2.922c.249 2.741.535 5.477.774 8.218a4.043 4.043 0 0 0 .136.721 1.2 1.2 0 0 0 1.238.98q1.594.035 3.187 0a1.194 1.194 0 0 0 1.283-1.074 34.247 34.247 0 0 0 .381-3.524c.217-2.291.479-4.579.636-6.877.013-.193.011-.425.289-.47.419.632 1.033 1.088 1.5 1.678a9.9 9.9 0 0 1 2.228 6.332q.019 6.817 0 13.636a1.511 1.511 0 0 1-.16 1c-.4.1-.471-.259-.61-.471a8.3 8.3 0 0 0-4.011-3.269 8.2 8.2 0 0 0-5.867-.137 8.472 8.472 0 0 0-5.558 6.245 6.361 6.361 0 0 0 .292 3.424 30.367 30.367 0 0 0 1.381 4.169.4.4 0 0 1 .021.357 1.416 1.416 0 0 1-1.241-.359z" transform="translate(-352.424 -296.696)" style="fill:#f8644b"/>
            <path data-name="Path 1465" d="M588.45 349.9c.2-.178.117-.421.117-.635 0-4.768.034-9.537-.01-14.3a9.154 9.154 0 0 0-2.235-5.98 4.27 4.27 0 0 0-1.069-1.075c-.246-.143-.253-.4-.247-.649a1.723 1.723 0 0 1 .133-1.688 9.518 9.518 0 0 1 9.2 8.059 41.52 41.52 0 0 1 .094 4.757.622.622 0 0 1-.178.126 28.58 28.58 0 0 1-3.235.062c-1.166.021-1.406.241-1.413 1.391-.005.937 0 1.872 0 2.809a1.018 1.018 0 0 0 .749 1.118 25.349 25.349 0 0 0 3.209.089c.3.015.613-.066.868.168 0 3.605.039 7.21 0 10.816a4.689 4.689 0 0 1-3.654 4.353c-.7.194-1.4.393-2.1.59a.75.75 0 0 1-.775.234.3.3 0 0 1-.167-.3.654.654 0 0 1 .035-.17 1.387 1.387 0 0 0 .146-.733 27.946 27.946 0 0 1 .947-3.225 6.685 6.685 0 0 0-.185-4.948c-.126-.275-.339-.536-.23-.869z" transform="translate(-532.24 -295.997)" style="fill:#f84730"/>
            <path data-name="Path 1466" d="m495.306 323.277-.133 1.688a7.447 7.447 0 0 0-.215 1.971c-.267 2.351-.43 4.713-.646 7.07a26.867 26.867 0 0 1-.242 1.863 1.357 1.357 0 0 1-1.426 1.214q-1.622.006-3.243 0a1.339 1.339 0 0 1-1.441-1.2c-.154-1.141-.261-2.29-.378-3.436-.164-1.6-.325-3.218-.473-4.829-.1-1.108-.163-2.221-.274-3.328-.04-.4.08-.962-.624-.94a6.745 6.745 0 0 1 1.629-.105c.209-.015.446.1.624-.112a2.536 2.536 0 0 1 1.611.1 1.345 1.345 0 0 1 .142.829c.006 1.2 0 2.406 0 3.607a2.259 2.259 0 0 0 .122.9.731.731 0 0 0 .7.506.721.721 0 0 0 .644-.49 2.167 2.167 0 0 0 .127-.9v-3.605a1.442 1.442 0 0 1 .135-.832 2.4 2.4 0 0 1 1.619-.111c.564.263 1.168.014 1.742.14z" transform="translate(-442.404 -293.704)" style="fill:#2a3a4c"/>
            <path data-name="Path 1467" d="M509.687 201.608a4.933 4.933 0 0 1-1.567-.128l-.267-.142c-.16-.3.115-.4.275-.512a6.418 6.418 0 0 0 1.66-1.676.831.831 0 0 1 .766-.4 1.527 1.527 0 0 0 .6-.078 3.065 3.065 0 0 0 2.426-2.707 2.892 2.892 0 0 0-2.309-3.011 5.98 5.98 0 0 0-.721-.127.746.746 0 0 1-.676-.338 6.051 6.051 0 0 0-1.789-1.808c-.151-.107-.4-.192-.233-.467a6.114 6.114 0 0 1 6.641.589 6.558 6.558 0 0 1 2.453 4.274 4.633 4.633 0 0 1-.472 3.471 2.743 2.743 0 0 1-1.017 1.343 7.422 7.422 0 0 1-2.228 1.591 4.879 4.879 0 0 1-1.567.128 2.5 2.5 0 0 1-1.975-.002z" transform="translate(-462.067 -172.046)" style="fill:#e93326"/>
            <path data-name="Path 1468" d="M474.742 206.21c-.016.012-.033.037-.047.036-.969-.108-1.364.608-1.854 1.234a6.82 6.82 0 0 1-.963.813c-.16.138-.418.185-.446.454a8.724 8.724 0 0 1-1.961-1.45 4.4 4.4 0 0 1-1.413-2.429 3.6 3.6 0 0 1-.074-2.382 6.57 6.57 0 0 1 2.518-4.3 5.485 5.485 0 0 1 .93-.566c.151.415.584.535.884.767a5.086 5.086 0 0 1 1.2 1.337.618.618 0 0 0 .628.349c-.053.318-.333.248-.529.3a2.956 2.956 0 0 0-2.242 2.4 3.026 3.026 0 0 0 1.414 2.917 2.445 2.445 0 0 0 1.223.343c.247-.001.531-.073.732.177z" transform="translate(-425.642 -179.452)" style="fill:#f84730"/>
            <path data-name="Path 1469" d="M390.224 252.17a6.561 6.561 0 0 0 .9 3.891c.2.3.389.613.582.92-2.466.005-4.931.016-7.4.011a1.809 1.809 0 0 1-1.461-.878 1.286 1.286 0 0 1-.038-1.843 2.274 2.274 0 0 1 1.286-.986 3.7 3.7 0 0 1 1.922-.439.914.914 0 0 0 .416-.012z" transform="translate(-347.886 -229.14)" style="fill:#f8644b"/>
            <path data-name="Path 1470" d="M593.74 256.973a6.781 6.781 0 0 0 1.489-4.813l3.783.666a5.359 5.359 0 0 1 1.736.192.968.968 0 0 1 .6.26 2.276 2.276 0 0 1 1.287.986 1.288 1.288 0 0 1-.038 1.843 1.855 1.855 0 0 1-1.522.885q-3.666-.004-7.335-.019z" transform="translate(-540.35 -229.131)" style="fill:#f8644b"/>
            <path data-name="Path 1471" d="M687.922 192.075a16.054 16.054 0 0 1 1.736-2.275 1.345 1.345 0 0 1 1.107-.411h3.3c1.271 0 1.938.5 1.976 1.49a2 2 0 0 1-1.986 2.05c-1.324.029-2.65.008-3.974.012-.178 0-.366.013-.549.02a1.211 1.211 0 0 1-1.441-.178.6.6 0 0 1-.169-.708z" transform="translate(-626.086 -171.955)" style="fill:#2a3a4c"/>
            <path data-name="Path 1472" d="M304.776 191.639c-.8.006-1.591.029-2.386.014a1.96 1.96 0 0 1-1.841-1.2 1.557 1.557 0 0 1 1.348-2.333c1.25-.082 2.528-.089 3.791-.138a1.217 1.217 0 0 1 1.061.5q.81 1.033 1.615 2.07c.178.8-.352 1.291-1.248 1.127a8.781 8.781 0 0 0-2.34-.04z" transform="translate(-273.116 -170.673)" style="fill:#2a3a4c"/>
            <path data-name="Path 1473" d="M499.692 731.092c-.672.006-1.345.037-2.016.009-.446-.019-.6.108-.6.577.019 4.21.014 8.421.016 12.631a3.773 3.773 0 0 1-1.546-3.318c-.005-.97-.025-1.941-.038-2.912a.77.77 0 0 1-.206-.618 24.36 24.36 0 0 1 .1-3.036 19.088 19.088 0 0 0 .038-2.616 1.4 1.4 0 0 1 .125-.83.437.437 0 0 1 .267-.135 18.68 18.68 0 0 1 3.748.052.193.193 0 0 1 .112.196z" transform="translate(-450.686 -665.089)" style="fill:#35495d"/>
            <path data-name="Path 1474" d="M326.946 275.535a2.067 2.067 0 0 0 .038 1.843c-1.613 0-3.225.018-4.839.009a.923.923 0 0 1-1.037-.949.906.906 0 0 1 1-.92c1.613-.011 3.226.009 4.838.017z" transform="translate(-292.018 -250.404)" style="fill:#2a3a4c"/>
            <path data-name="Path 1475" d="M693.13 277.378a2.072 2.072 0 0 0 .038-1.843c1.612-.008 3.225-.028 4.837-.017a.908.908 0 0 1 1 .92.926.926 0 0 1-1.037.949c-1.613.013-3.226-.004-4.838-.009z" transform="translate(-630.882 -250.404)" style="fill:#2a3a4c"/>
            <path data-name="Path 1476" d="M349.93 217.915a15.79 15.79 0 0 1 2.537-.094c.8-.02.995-.2 1.049-.991q1.412 1.754 2.82 3.51c.132.166.253.316.487.307l-2.341.448c-.745-.955-1.5-1.9-2.228-2.865a.754.754 0 0 0-.683-.3c-.547.008-1.095-.011-1.641-.015z" transform="translate(-318.27 -196.949)" style="fill:#c9dce9"/>
            <path data-name="Path 1477" d="M656.064 219.52c.128 1.038.938.838 1.612.884l-2.448 3.141-2.338-.452c.692-.2.9-.879 1.32-1.346.642-.72 1.144-1.56 1.854-2.227z" transform="translate(-594.228 -199.4)" style="fill:#c9dce9"/>
            <path data-name="Path 1478" d="m517.959 562.5-.864.948a2.133 2.133 0 0 1-2.1.9c-1.124.134-2.254.041-3.381.089a.9.9 0 0 1-.037-.094 2.345 2.345 0 0 1 .234-1.235c.489-1.679.972-3.361 1.515-5.021 1.291-3.916-1.089-7.479-4.016-9.091-.332-.178-.807-.2-.919-.691a8.675 8.675 0 0 1 10.423 4.039 7.309 7.309 0 0 1 .975 3.843 13.838 13.838 0 0 1-.7 2.947c-.246.8-.51 1.6-.767 2.4.11.234-.076.406-.13.606-.085.096-.117.253-.233.36z" transform="translate(-462.607 -498.426)" style="fill:#e93326"/>
            <path data-name="Path 1479" d="M449.684 553.26a22.952 22.952 0 0 1 2.228 1.354 8.343 8.343 0 0 1 3.187 5.549 7.775 7.775 0 0 1-.393 3.092c-.6 2.021-1.228 4.032-1.845 6.048l-4.067.011-.056-.007-.056.008a2.308 2.308 0 0 1-2.058-.923l-.745-.826a19.6 19.6 0 0 1-1.936-6.8 7.063 7.063 0 0 1 1.768-4.69 8.555 8.555 0 0 1 3.973-2.816z" transform="translate(-403.897 -503.395)" style="fill:#f1172a"/>
            <path data-name="Path 1480" d="M649.865 469.373a.769.769 0 0 1 .1-.013v5.76h-3.525c-.217 0-.446.066-.64-.107a.909.909 0 0 1 .741-.2c.753-.012 1.507 0 2.26-.005.845 0 .865-.021.868-.842v-3.719a1.235 1.235 0 0 1 .196-.874z" transform="translate(-587.77 -426.972)" style="fill:#fda127"/>
            <path data-name="Path 1481" d="M387.67 469.42h3.725c.937 0 1.27.34 1.275 1.3q.007 1.584 0 3.169a1.132 1.132 0 0 1-1.273 1.282c-1.242.015-2.483 0-3.725 0l-.002-5.751z" transform="translate(-352.647 -427.027)" style="fill:#feb023"/>
            <path data-name="Path 1482" d="M641.208 469.432c0 1.686-.015 3.372.011 5.057.007.465-.148.589-.6.579-1.159-.024-2.317 0-3.476 0a.854.854 0 0 1-.823-.891 67.812 67.812 0 0 1-.006-3.719.97.97 0 0 1 1.106-1.029c1.263-.01 2.526 0 3.788.003z" transform="translate(-579.113 -427.031)" style="fill:#feb023"/>
            <path data-name="Path 1483" d="M618.46 702.246c.044-.2.089-.4.13-.606.248.26.01.424-.13.606z" transform="translate(-562.867 -638.55)" style="fill:#f45f4a"/>
            <path data-name="Path 1484" d="M615.744 708.77a.384.384 0 0 1 .244-.38v.363z" transform="translate(-560.392 -644.698)" style="fill:#f45f4a"/>
            <path data-name="Path 1485" d="M529 325.45h1.974q0 2.317-.008 4.635c0 .882-.38 1.436-.98 1.436s-.98-.553-.98-1.436q-.006-2.319-.006-4.635z" transform="translate(-481.38 -295.889)" style="fill:#f8644b"/>
            <path data-name="Path 1486" d="M509.055 231.314a3.113 3.113 0 0 1-2.711-.93 2.913 2.913 0 0 1-.652-3.148 2.839 2.839 0 0 1 2.48-1.955 1.205 1.205 0 0 0 .277-.1 3.146 3.146 0 0 1 2.936 1.923 3.052 3.052 0 0 1-2.33 4.21z" transform="translate(-459.955 -204.555)" style="fill:#feb023"/>
        </g>
    </g>
</svg>
