<svg xmlns="http://www.w3.org/2000/svg" width="93" height="93" viewBox="0 0 93 93">
    <defs>
        <clipPath id="fdbyaoynia">
            <rect data-name="Rectangle 6595" width="93" height="93" rx="46.5" transform="translate(42 1880)" style="fill:#000036;opacity:.05"/>
        </clipPath>
    </defs>
    <g data-name="Mask Group 91" transform="translate(-42 -1880)" style="clip-path:url(#fdbyaoynia)">
        <g data-name="Dash Category Icons-07">
            <path data-name="Rectangle 6594" transform="translate(40.139 1878.141)" style="opacity:.1;fill:#f3a322" d="M0 0h96.72v96.72H0z"/>
            <path data-name="Path 1394" d="M322.141 218.341c-.326-.862-.668-1.718-.971-2.585a.528.528 0 0 0-.535-.391c-1.686-.237-3.394-.29-5.074-.592-1.115-.2-2.139-.7-3.221-.98a15.362 15.362 0 0 1-3.565-2.569c-2-2.092-2.9-4.766-3.911-7.374-.059-.153-.111-.31-.168-.465-.16-.463-.357-.912-.529-1.37-.077-.2-.225-.4-.116-.64-.157-.4-.316-.8-.471-1.2a2.147 2.147 0 0 1 1.421-3.06q10.826-3.886 21.645-7.792c1.776-.64 2.982.045 3.4 1.922a1.5 1.5 0 0 1 .446.843 6.027 6.027 0 0 0 .481 1.184c.428 1.528 1.021 3 1.456 4.525a11.762 11.762 0 0 1 .5 3.654 8.853 8.853 0 0 1-.909 4.326 14.688 14.688 0 0 1-3.2 4.934c-.568.624-1.1 1.281-1.669 1.906a.59.59 0 0 0-.15.713c.357.851.677 1.715 1.012 2.574.024.308-.246.357-.43.436-1.615.7-3.217 1.426-4.835 2.111-.205.092-.455.233-.607-.11z" transform="translate(-236.215 1706.493)" style="fill:#f3a322"/>
            <path data-name="Path 1395" d="M485.891 468.33a.333.333 0 0 0 .392.046c1.766-.783 3.537-1.554 5.3-2.333a.889.889 0 0 0 .186-.147c1.645-.586 3.209-1.361 4.813-2.05a2.31 2.31 0 0 1 3.468 1.46q.337.959.68 1.913c-.141.208-.378.237-.587.308-1.537.509-3.058 1.083-4.6 1.578-.7.227-.713.273-.492.963l.078.234c.222.644.238.653.874.446 1.544-.5 3.1-.97 4.635-1.5.259-.089.535-.267.816-.046a27.962 27.962 0 0 1 1.248 3.331c-.112.3-.406.328-.65.411-1.482.5-2.97.989-4.456 1.49-.663.225-.675.267-.407 1.062.242.718.275.747.955.512 1.479-.513 2.981-.952 4.468-1.443.262-.089.535-.267.818-.044a26.734 26.734 0 0 1 1.243 3.337 10.446 10.446 0 0 1-2.159.858c-.919.357-1.872.615-2.8.955-.643.235-.662.3-.453.95.286.891.279.865 1.147.614 1.46-.421 2.88-.968 4.344-1.373.21-.058.425-.184.646-.023a5.067 5.067 0 0 1 .6 1.66 2.3 2.3 0 0 1-1.4 2.383c-1.474.734-2.961 1.442-4.438 2.169a1.4 1.4 0 0 0-.574.348 10.9 10.9 0 0 1-2.033 1.119 4.909 4.909 0 0 1-3.612.535 1.216 1.216 0 0 1-.518-.17 14.346 14.346 0 0 0-2.238-.308c-1.234-.161-2.472-.292-3.709-.437a1.049 1.049 0 0 1-.294-.535c-1.355-4.04-2.685-8.088-4.045-12.121a9.914 9.914 0 0 0 .624-2.486c.124-.475.162-.971.286-1.446a2.5 2.5 0 0 1 1.52-1.884c.162-.059.305-.14.324-.336z" transform="translate(-399.964 1456.504)" style="fill:#eecbbe"/>
            <path data-name="Path 1396" d="m209 646.636-9.731 4.077q-4.866 2.037-9.734 4.041c-.166.069-.339.12-.561.2v-.782c0-4.473.006-8.946-.01-13.419a.71.71 0 0 1 .535-.794q7.451-2.952 14.884-5.943c.094-.038.194-.062.292-.094.338 0 .369.284.446.5 1.321 3.88 2.576 7.781 3.852 11.676a.77.77 0 0 1 .027.538z" transform="translate(-132.004 1301.307)" style="fill:#4a4a56"/>
            <path data-name="Path 1397" d="M369.6 603.351q-1.98-5.976-3.964-11.952c-.089-.267-.111-.572-.357-.764l3.6-1.465a.838.838 0 0 1 .217.434c.83 2.61 1.792 5.169 2.634 7.779.226.7.234.7.957.456a2.465 2.465 0 0 1 .234-.077c.461-.1.616-.357.427-.808-.117-.285-.2-.585-.3-.878-.729-2.187-1.463-4.373-2.186-6.562-.11-.333-.261-.648-.383-.975l5.321-2.139c.279.029.275.281.335.459q1.969 5.888 3.922 11.78a3.239 3.239 0 0 1 .081.418z" transform="translate(-292.609 1344.591)" style="fill:#676b7f"/>
            <path data-name="Path 1398" d="M601.115 788.369c.645.278.782.909 1.009 1.471.551 1.365.543 1.354-.815 1.889q-6.828 2.687-13.647 5.4c-.486.194-.673.135-.88-.374-.488-1.2-.95-2.365.1-3.488.434-.464.925-.874 1.39-1.309a7.766 7.766 0 0 0 1.489-1.366 2.463 2.463 0 0 1 .865-.567c.33-.117.65-.258.975-.386a23.382 23.382 0 0 1 3.909-1.494 25.409 25.409 0 0 1 4.18-.071 3.105 3.105 0 0 1 1.425.295z" transform="translate(-493.882 1160.947)" style="fill:#e7821c"/>
            <path data-name="Path 1399" d="M612.385 726.426a16.718 16.718 0 0 0-5.207-.178 10.236 10.236 0 0 0-2.812 1.025c-.573.222-1.135.477-1.718.671a5.258 5.258 0 0 0-2.415 1.615c-.178.206-.336.491-.689.446.464-.465.921-.94 1.4-1.393a.537.537 0 0 0 .166-.692c-.844-2.139-1.662-4.286-2.488-6.431a1.051 1.051 0 0 1 .307-.008c1.823.5 3.37-.231 4.9-1.07a2.255 2.255 0 0 1 .955-.4c.707 1.856 1.426 3.71 2.114 5.572a.625.625 0 0 0 .7.495c1.193-.03 2.385-.01 3.579-.011a1.772 1.772 0 0 1 1.208.359z" transform="translate(-505.152 1222.89)" style="fill:#f3a322"/>
            <path data-name="Path 1400" d="M271.365 336.786a20.715 20.715 0 0 0 3.466 2.5.6.6 0 0 1-.033.1c-2.1-.23-4.208-.455-6.311-.692a15.046 15.046 0 0 1-1.827-.256 5.91 5.91 0 0 1-4.456-4.824 5.827 5.827 0 0 1 3.127-6.115c.38-.2.785-.351 1.179-.525a10.149 10.149 0 0 1 .756 2.013c-.089.275-.346.33-.567.427a3.5 3.5 0 0 0-2.228 3.01 3.465 3.465 0 0 0 1.841 3.433 5.767 5.767 0 0 0 2.387.508 17.74 17.74 0 0 1 2.666.421z" transform="translate(-198.67 1580.89)" style="fill:#e7821c"/>
            <path data-name="Path 1401" d="M604.751 223.149a14.428 14.428 0 0 0 .742-4.4 6.433 6.433 0 0 1 1.159-1.649c.357-.478.761-.915 1.1-1.407a3.3 3.3 0 0 0-3.422-5.055c-.232.049-.473.178-.7-.016-.4-.126-.319-.524-.44-.8-.169-.389-.277-.8-.412-1.207a6.264 6.264 0 0 1 3.682-.284 5.6 5.6 0 0 1 3.267 8.522c-1.516 2.208-3.268 4.241-4.976 6.296z" transform="translate(-508.932 1689.119)" style="fill:#e7821c"/>
            <path data-name="Path 1402" d="M762.57 492.4a6.684 6.684 0 0 0 5.895-5.668 6.586 6.586 0 0 0 5.771 5.667 6.588 6.588 0 0 0-5.783 5.544 7.249 7.249 0 0 0-1.947-3.728 6.869 6.869 0 0 0-3.936-1.815z" transform="translate(-654.489 1435.378)" style="fill:#f3c067"/>
            <path data-name="Path 1403" d="M729.766 254.859a6.241 6.241 0 0 0-5.423 4.971 1.311 1.311 0 0 1-.168.535c-.972-3.4-2.958-5.377-5.509-5.508a.133.133 0 0 1 0-.227 6.275 6.275 0 0 0 5.3-4.738c.053-.25.109-.5.194-.891.676 3.188 2.389 5.169 5.6 5.626a.128.128 0 0 1 0 .234z" transform="translate(-614.439 1651.92)" style="fill:#f3c067"/>
            <path data-name="Path 1404" d="M200.746 489.653c.624 3.018 2.5 4.753 5.677 5.392a6.632 6.632 0 0 0-5.759 5.74 6.582 6.582 0 0 0-5.814-5.747 6.416 6.416 0 0 0 5.686-5.148c.09-.064-.02-.306.21-.237z" transform="translate(-137.369 1432.727)" style="fill:#f3c067"/>
            <path data-name="Path 1405" d="M407.082 610.4c.294.035.318.281.389.492.9 2.692 1.788 5.387 2.708 8.071.154.452.038.6-.387.743-1.337.438-1.325.454-1.783-.887l-2.356-6.952a1.816 1.816 0 0 1-.178-.836z" transform="translate(-329.214 1322.731)" style="fill:#4a4a56"/>
            <path data-name="Path 1406" d="M620.415 506.784a11.12 11.12 0 0 0-1.824.55q-1.97.624-3.927 1.279c-.35.119-.489.045-.613-.317-.5-1.466-.524-1.487.97-1.954 1.568-.49 3.073-1.168 4.677-1.552a8.714 8.714 0 0 1 .717 1.994z" transform="translate(-518.927 1418.928)" style="fill:#d7b3ac"/>
            <path data-name="Path 1407" d="M643.571 566.517c-1.783.473-3.529 1.086-5.285 1.658-.81.267-.808.267-1.085-.553-.356-1.069-.356-1.069.734-1.436q2.453-.826 4.9-1.656a5.98 5.98 0 0 1 .736 1.987z" transform="translate(-540.102 1364.512)" style="fill:#d7b3ac"/>
            <path data-name="Path 1408" d="M667.5 626.233c-1.8.567-3.594 1.123-5.383 1.709-.415.136-.6.089-.75-.363-.453-1.4-.472-1.382.915-1.851 1.262-.426 2.517-.871 3.777-1.3.23-.078.473-.119.713-.178a12.683 12.683 0 0 1 .728 1.983z" transform="translate(-562.057 1310.115)" style="fill:#d7b3ac"/>
            <path data-name="Path 1409" d="M713.129 312.071v.228a.991.991 0 0 1-.609-.084c.192-.222.412-.142.609-.144z" transform="translate(-608.9 1594.482)" style="fill:#fbebcf"/>
            <path data-name="Path 1410" d="M843.87 312.286v-.227c.191.007.394-.076.6.105-.179.205-.402.115-.6.122z" transform="translate(-728.543 1594.493)" style="fill:#fdf4e6"/>
            <path data-name="Path 1411" d="m258.729 487.87-.209.237c-.018-.162-.045-.346.135-.42.074-.029.086.104.074.183z" transform="translate(-195.352 1434.51)" style="fill:#f5c879"/>
            <path data-name="Path 1412" d="M540.185 244.546a9.58 9.58 0 0 1-2.185 6.262c-.471.555-.487.566-1.024.024-.3-.307-.762-.583-.848-.944-.079-.34.439-.628.671-.957a7.9 7.9 0 0 0 1.113-5.788 14.806 14.806 0 0 0-1.782-5.214c-.192-.357-.206-.57.188-.775a7.545 7.545 0 0 0 1.032-.671c.237-.178.375-.178.525.1a18.161 18.161 0 0 1 2.31 7.963z" transform="translate(-448.109 1663.433)" style="fill:#ecc07b"/>
        </g>
    </g>
</svg>
