<svg xmlns="http://www.w3.org/2000/svg" xmlns:xlink="http://www.w3.org/1999/xlink" width="93" height="93" viewBox="0 0 93 93">
  <defs>
    <style>
      .cls-1 {
        fill: #000036;
        opacity: 0.05;
      }

      .cls-2 {
        clip-path: url(#clip-path);
      }

      .cls-3, .cls-5 {
        fill: #f6b94d;
      }

      .cls-3 {
        opacity: 0.1;
      }

      .cls-4 {
        fill: #2b2b2b;
      }

      .cls-6 {
        fill: #ff5d5d;
      }
    </style>
    <clipPath id="clip-path">
      <rect id="Rectangle_6533" data-name="Rectangle 6533" class="cls-1" width="93" height="93" rx="46.5" transform="translate(42 753)"/>
    </clipPath>
  </defs>
  <g id="Mask_Group_75" data-name="Mask Group 75" class="cls-2" transform="translate(-42 -753)">
    <g id="Dash_Category_Icons_Festival_Deals" data-name="Dash Category Icons_Festival Deals" transform="translate(40.139 751.141)">
      <rect id="Rectangle_6532" data-name="Rectangle 6532" class="cls-3" width="96.72" height="96.72" transform="translate(0 0)"/>
      <path id="Path_1204" data-name="Path 1204" class="cls-4" d="M702.419,449.156c-.69.784-.98.813-1.816.152a28.347,28.347,0,0,0-12.135-5.812c-1.113-.218-2.252-.313-3.387-.425-.767-.076-1.151-.383-1.11-.989.04-.583.435-.883,1.17-.845a27.292,27.292,0,0,1,12.879,4.076c1.317.8,2.546,1.742,3.8,2.635a4.776,4.776,0,0,1,.6.6Z" transform="translate(-622.53 -401.321)"/>
      <path id="Path_1205" data-name="Path 1205" class="cls-4" d="M221.946,317.345c1.226-.509,2.3-1.045,3.436-1.4a38.415,38.415,0,0,1,3.958-.967c.761-.154,1.147.138,1.214.735.07.624-.248.972-1.032,1.07A20.09,20.09,0,0,0,222.906,319a3.235,3.235,0,0,0-.307.209,25.83,25.83,0,0,1,6.3,2.418A34.041,34.041,0,0,1,241.13,333.3a51.135,51.135,0,0,1,4.926,9.777c.307.8.188,1.236-.4,1.474s-1-.02-1.307-.8a46.837,46.837,0,0,0-6.857-12.373,28.854,28.854,0,0,0-13.09-9.733c-.746-.267-1.52-.446-2.284-.658a2.721,2.721,0,0,0-.416-.042,2.4,2.4,0,0,0,.129.362,47.7,47.7,0,0,1,5.259,14.8q.324,1.612.6,3.234c.161.929-.066,1.369-.713,1.464-.617.089-.911-.278-1.106-1.159-.674-3.05-1.294-6.117-2.1-9.133a32.462,32.462,0,0,0-3.729-8.641c-.106-.172-.217-.343-.331-.51-.02-.029-.07-.037-.137-.071a17.934,17.934,0,0,0-2.75,4.974,48.565,48.565,0,0,0-2.684,11.787,96.1,96.1,0,0,0-.629,13.636c.016.733-.3,1.117-.891,1.133a.861.861,0,0,1-.93-.964,85.894,85.894,0,0,1,1.836-21.018,29.825,29.825,0,0,1,3.493-9.115,1.062,1.062,0,0,0,.059-.233,15.92,15.92,0,0,0-4.756,2.976,23.582,23.582,0,0,0-5.138,7.06c-.129.253-.245.514-.385.761a.841.841,0,0,1-1.224.414.85.85,0,0,1-.395-1.238c.619-1.188,1.227-2.387,1.93-3.525a19.764,19.764,0,0,1,7.843-7.487c.063-.032.119-.081.146-.273-1.145.065-2.3.074-3.436.2a23.172,23.172,0,0,0-13.124,5.644,24.973,24.973,0,0,0-5.8,7.77c-.08.164-.155.331-.242.492-.31.581-.735.747-1.248.491a.857.857,0,0,1-.4-1.278,49.7,49.7,0,0,1,2.571-4.419,24.283,24.283,0,0,1,17.411-10.428c1.68-.225,3.387-.252,5.089-.371a1.691,1.691,0,0,0-.2-.148,22.156,22.156,0,0,0-10.339-3.164c-1.39-.033-2.787.24-4.184.33a1.731,1.731,0,0,1-1.118-.2c-.587-.493-.25-1.357.562-1.545a18.258,18.258,0,0,1,6.25-.328,26.1,26.1,0,0,1,10.224,3.6c.165.1.335.178.588.317a2.181,2.181,0,0,0-.074-.324,23.162,23.162,0,0,0-8.668-10.3,17.728,17.728,0,0,0-6.422-2.378c-.823-.14-1.192-.9-.672-1.456a1.305,1.305,0,0,1,1.014-.322,19.608,19.608,0,0,1,9.61,4.477,25.987,25.987,0,0,1,6.239,8.043c.089.168.183.332.3.54.249-1.39.455-2.706.732-4.011a3.99,3.99,0,0,1,.582-1.392c.17-.251.624-.535.852-.469a1.43,1.43,0,0,1,.718.785c.1.218-.026.55-.089.824-.3,1.323-.606,2.643-.911,3.965l.168.072c.128-.186.258-.372.386-.558,3.9-5.721,9-9.841,15.792-11.656a26.624,26.624,0,0,1,6.336-.856c.734-.015,1.119.291,1.134.891s-.328.916-1.087.934a24.134,24.134,0,0,0-11.328,2.977A27.674,27.674,0,0,0,221.946,317.345Z" transform="translate(-173.235 -274.601)"/>
      <path id="Path_1206" data-name="Path 1206" class="cls-5" d="M806.854,349.144c-.542.409-1.069.845-1.634,1.215a.812.812,0,0,0-.468.76,4.377,4.377,0,0,1-.117,1.27,1.247,1.247,0,0,1-.539.785c-.278.108-.668-.061-1.006-.127a.368.368,0,0,1-.184-.155,2.07,2.07,0,0,0-2.763-.664.91.91,0,0,1-1.11-.242.872.872,0,0,1-.079-1.13,2.215,2.215,0,0,0-.173-2.951,1.366,1.366,0,0,1-.084-1.109.791.791,0,0,1,1.036-.418,2.109,2.109,0,0,0,2.7-1.062.914.914,0,0,1,1.1-.446.9.9,0,0,1,.685.907,2.109,2.109,0,0,0,1.817,2.189c.3.069.547.373.819.57Zm-3.983,1.1.758-1.182c-.289-.35-.624-.75-.891-1.077l-1.344.53c.03.446.064.95.089,1.38Z" transform="translate(-726.965 -313.509)"/>
      <path id="Path_1207" data-name="Path 1207" class="cls-5" d="M188.982,712.773a4.159,4.159,0,0,1,1.119-.629,1.754,1.754,0,0,0,1.631-1.629,1.838,1.838,0,0,1,.149-.462c.3-.771,1.221-.973,1.6-.267a2.527,2.527,0,0,0,2.842,1.451.858.858,0,0,1,.726,1.44,2.531,2.531,0,0,0-.508,3.148.854.854,0,0,1-1.151,1.118,2.433,2.433,0,0,0-3.1.466,1.048,1.048,0,0,1-.98.084,1.079,1.079,0,0,1-.477-.867,2.25,2.25,0,0,0-1.374-2.681,2.2,2.2,0,0,1-.483-.439Zm3.209.741.567,1.166,1.33-.2c.06-.423.125-.882.185-1.3l-1.185-.636Z" transform="translate(-171.66 -645.542)"/>
      <path id="Path_1208" data-name="Path 1208" class="cls-6" d="M408.7,217.009c.3-.891-.2-1.525-1.089-1.979a2.67,2.67,0,0,1-.839-.6,1.418,1.418,0,0,1-.419-.917,1.253,1.253,0,0,1,.67-.753,7.967,7.967,0,0,1,1.679-.535.93.93,0,0,0,.772-.8,8.284,8.284,0,0,1,.508-1.624c.136-.3.446-.663.721-.7a1.336,1.336,0,0,1,.971.42c.44.471.757,1.056,1.167,1.56a.909.909,0,0,0,.593.3c.629.03,1.262.008,1.892-.016.446-.018.882.089.994.524a1.557,1.557,0,0,1-.154,1.06c-.383.664-1.13,1.226-1.24,1.908-.106.656.454,1.4.624,2.126a1.548,1.548,0,0,1-.162,1.055c-.237.387-.687.348-1.105.2-.594-.208-1.19-.422-1.8-.579a.913.913,0,0,0-.658.109c-.541.357-1.021.816-1.578,1.144a1.238,1.238,0,0,1-.989.14,1.547,1.547,0,0,1-.535-.909A4.529,4.529,0,0,1,408.7,217.009Zm4.919-3.767a1.992,1.992,0,0,1-2.4-1.22,2.043,2.043,0,0,1-1.92,1.948,2.014,2.014,0,0,1,1.274,2.406,2.047,2.047,0,0,1,2.682-.455A2.033,2.033,0,0,1,413.616,213.242Z" transform="translate(-369.652 -189.87)"/>
      <path id="Path_1209" data-name="Path 1209" class="cls-6" d="M629.559,736.507c.089-.562.21-1.12.248-1.684a1.115,1.115,0,0,0-.244-.72c-.311-.371-.745-.646-1.03-1.033a1.317,1.317,0,0,1-.276-.968c.08-.275.469-.5.772-.651a1.96,1.96,0,0,1,.891-.15,1.379,1.379,0,0,0,1.482-1.134c.071-.23.22-.434.316-.658.178-.41.481-.756.912-.651a1.825,1.825,0,0,1,.907.674c.278.364.409.838.656,1.231a.94.94,0,0,0,.535.379c.514.116,1.046.15,1.566.241a.912.912,0,0,1,.564,1.558,6.42,6.42,0,0,1-.91.9,1.061,1.061,0,0,0-.38,1.279,3.112,3.112,0,0,1,.178,1.074,1.489,1.489,0,0,1-.357,1,1.419,1.419,0,0,1-1.061.028c-.44-.131-.824-.446-1.259-.6a1.136,1.136,0,0,0-.761,0c-.505.207-.964.524-1.466.741a.922.922,0,0,1-1.283-.846Zm2.3-1.88h1.74a1.37,1.37,0,0,1,.481-1.515l-1.406-1.035-1.344.98C631.494,733.545,631.686,734.118,631.856,734.627Z" transform="translate(-571.767 -663.294)"/>
      <path id="Path_1210" data-name="Path 1210" class="cls-4" d="M553.631,245.126a3.705,3.705,0,0,1-.58.783,18.858,18.858,0,0,0-5.381,6.52.924.924,0,1,1-1.634-.82,20.275,20.275,0,0,1,5.83-7.086c.346-.258.721-.467,1.111-.194A3.93,3.93,0,0,1,553.631,245.126Z" transform="translate(-496.752 -221.85)"/>
      <path id="Path_1211" data-name="Path 1211" class="cls-4" d="M197.5,451.341a1.821,1.821,0,0,1-.45.55,21.836,21.836,0,0,0-4.534,3.673.872.872,0,0,1-1.3.062.913.913,0,0,1-.02-1.312,20.619,20.619,0,0,1,4.914-3.966C196.807,449.95,197.521,450.381,197.5,451.341Z" transform="translate(-173.438 -409.489)"/>
      <path id="Path_1212" data-name="Path 1212" class="cls-4" d="M320.864,691.207c-.139.476-.316,1.014-.451,1.564-.16.649-.263,1.312-.424,1.961a.908.908,0,0,1-1.778-.365q.4-1.783.879-3.536a.828.828,0,0,1,1.043-.62A.9.9,0,0,1,320.864,691.207Z" transform="translate(-289.355 -628.088)"/>
      <path id="Path_1213" data-name="Path 1213" class="cls-4" d="M838.581,665.276a.878.878,0,0,1-.9.882.91.91,0,0,1,.055-1.819A.891.891,0,0,1,838.581,665.276Z" transform="translate(-761.758 -604.54)"/>
      <path id="Path_1214" data-name="Path 1214" class="cls-4" d="M251.882,354.155a.879.879,0,1,1-1.756-.029.878.878,0,1,1,1.756.029Z" transform="translate(-227.356 -321.187)"/>
      <path id="Path_1215" data-name="Path 1215" class="cls-4" d="M695.06,257.713a.871.871,0,1,1-1.741.008.871.871,0,1,1,1.741-.008Z" transform="translate(-631.049 -233.344)"/>
      <path id="Path_1216" data-name="Path 1216" class="cls-4" d="M514.382,732.892a.83.83,0,0,1-.882.873.844.844,0,0,1-.871-.891.87.87,0,0,1,.919-.912A.857.857,0,0,1,514.382,732.892Z" transform="translate(-466.464 -666.137)"/>
      <path id="Path_1217" data-name="Path 1217" class="cls-4" d="M786.262,529.04a.891.891,0,0,1-.809-.968.864.864,0,0,1,.98-.842.845.845,0,0,1,.767.98A.863.863,0,0,1,786.262,529.04Z" transform="translate(-714.968 -479.646)"/>
      <path id="Path_1218" data-name="Path 1218" class="cls-4" d="M320.464,826.171a.864.864,0,0,1-.838.929.9.9,0,1,1,.838-.929Z" transform="translate(-289.828 -751.157)"/>
    </g>
  </g>
</svg>
