<svg xmlns="http://www.w3.org/2000/svg" width="93" height="93" viewBox="0 0 93 93">
    <defs>
        <clipPath id="huuftojl9a">
            <rect data-name="Rectangle 6535" width="93" height="93" rx="46.5" transform="translate(160 753)" style="fill:#000036;opacity:.05"/>
        </clipPath>
    </defs>
    <g data-name="Mask Group 76" transform="translate(-160 -753)" style="clip-path:url(#huuftojl9a)">
        <g data-name="Dash Category Icons_Insurance">
            <path data-name="Rectangle 6534" transform="translate(158.14 751.141)" style="opacity:.1;fill:#6ebf8b" d="M0 0h96.72v96.72H0z"/>
            <path data-name="Path 1219" d="M292.829 220.5a5.58 5.58 0 0 0-.525 2.176c-1.549 7.371-5.677 13.263-11.289 18.289a58.491 58.491 0 0 1-14.508 9.394 3.487 3.487 0 0 1-3.207 0c-8.421-3.976-15.81-9.169-21.1-16.788a28.184 28.184 0 0 1-5.25-16.521c.023-5.962 0-11.933 0-17.9 0-1.829.416-2.377 2.249-2.973q12.209-3.971 24.413-7.958a3.987 3.987 0 0 1 2.637.018q12.15 3.981 24.319 7.9a4.258 4.258 0 0 1 2.257 1.616z" transform="translate(-58.323 580.483)" style="fill:#6ebf8b"/>
            <path data-name="Path 1220" d="M287.153 257.58c0-3.088.019-6.177-.015-9.269-.007-.649.137-.98.8-1.2q10.57-3.517 21.118-7.108a1.8 1.8 0 0 1 1.218-.012q10.606 3.581 21.212 7.147c.413.138.731.267.722.838-.1 6.21.228 12.429-.172 18.628-.357 5.514-2.767 10.222-6.239 14.421a48.562 48.562 0 0 1-15.436 12.007 1.127 1.127 0 0 1-1.175.1c-7.205-3.749-13.579-8.472-18.047-15.4a24.559 24.559 0 0 1-3.989-13.623c.009-2.177.003-4.352.003-6.529z" transform="translate(-103.106 533.218)" style="fill:#fefefe"/>
            <path data-name="Path 1221" d="M399.808 434.252a2.227 2.227 0 0 1-1.907-.874c-2.961-3.693-5.93-7.38-8.871-11.088a2.164 2.164 0 0 1 .3-3.248 2.26 2.26 0 0 1 3.25.516c2.271 2.808 4.541 5.615 6.762 8.467.469.6.7.512 1.166.04q6.459-6.493 12.951-12.954a2.6 2.6 0 0 1 2.3-1.011 2.223 2.223 0 0 1 1.48 3.537 5.911 5.911 0 0 1-.638.7q-7.447 7.438-14.9 14.874a2.6 2.6 0 0 1-1.893 1.041z" transform="translate(-195.349 374.559)" style="fill:#6ebf8b"/>
        </g>
    </g>
</svg>
