<svg xmlns="http://www.w3.org/2000/svg" xmlns:xlink="http://www.w3.org/1999/xlink" width="93" height="93" viewBox="0 0 93 93">
  <defs>
    <style>
      .cls-1 {
        fill: #000036;
        opacity: 0.05;
      }

      .cls-2 {
        clip-path: url(#clip-path);
      }

      .cls-3, .cls-5 {
        fill: #ff5d5d;
      }

      .cls-3 {
        opacity: 0.1;
      }

      .cls-4 {
        fill: #f6b94d;
      }

      .cls-6 {
        fill: #e8cca3;
      }

      .cls-7 {
        fill: #2b2b2b;
      }

      .cls-8 {
        fill: #f7e1bc;
      }
    </style>
    <clipPath id="clip-path">
      <rect id="Rectangle_6538" data-name="Rectangle 6538" class="cls-1" width="93" height="93" rx="46.5" transform="translate(268 753)"/>
    </clipPath>
  </defs>
  <g id="Mask_Group_77" data-name="Mask Group 77" class="cls-2" transform="translate(-268 -753)">
    <g id="Dash_Category_Icons_Wellness" data-name="Dash Category Icons_Wellness" transform="translate(266.141 751.141)">
      <rect id="Rectangle_6536" data-name="Rectangle 6536" class="cls-3" width="96.72" height="96.72" transform="translate(0 0)"/>
      <path id="Path_1222" data-name="Path 1222" class="cls-4" d="M809.4,340.746c-.274.207-.535.427-.826.614a.411.411,0,0,0-.236.384,2.3,2.3,0,0,1-.06.643.627.627,0,0,1-.273.4c-.126.049-.338-.031-.509-.064a.191.191,0,0,1-.089-.078,1.046,1.046,0,0,0-1.4-.336.46.46,0,0,1-.562-.122.446.446,0,0,1-.04-.572,1.116,1.116,0,0,0-.089-1.493.691.691,0,0,1-.042-.561.4.4,0,0,1,.524-.211,1.07,1.07,0,0,0,1.364-.535.465.465,0,0,1,.557-.227.456.456,0,0,1,.347.459,1.069,1.069,0,0,0,.919,1.108c.152.035.277.189.414.289Zm-2.014.555.383-.6-.446-.545-.681.267c.016.226.033.48.047.7Z" transform="translate(-732.601 -307.8)"/>
      <path id="Path_1223" data-name="Path 1223" class="cls-4" d="M298.136,608.69c.105-.316-.069-.541-.387-.7a.948.948,0,0,1-.3-.214.5.5,0,0,1-.149-.325.445.445,0,0,1,.238-.267,2.811,2.811,0,0,1,.6-.191.332.332,0,0,0,.274-.285,3,3,0,0,1,.178-.577c.048-.1.159-.235.256-.249a.47.47,0,0,1,.344.15c.157.167.267.374.414.554a.324.324,0,0,0,.21.106c.224.011.446,0,.672-.006.159-.006.313.032.356.186a.554.554,0,0,1-.055.376c-.135.236-.4.436-.44.677s.161.5.221.755a.545.545,0,0,1-.057.374c-.084.137-.244.124-.392.072-.211-.074-.422-.15-.638-.206a.324.324,0,0,0-.234.038c-.192.128-.363.29-.561.406a.434.434,0,0,1-.352.051.6.6,0,0,1-.191-.323A1.548,1.548,0,0,1,298.136,608.69Zm1.746-1.337a.7.7,0,0,1-.851-.432.728.728,0,0,1-.682.692.715.715,0,0,1,.453.853.812.812,0,0,0,1.08-1.113Z" transform="translate(-269.935 -551.293)"/>
      <path id="Path_1224" data-name="Path 1224" class="cls-5" d="M229.812,286.677c.056-.362.135-.722.16-1.086a.718.718,0,0,0-.158-.463c-.2-.24-.48-.416-.663-.666a.834.834,0,0,1-.178-.624c.054-.178.3-.325.5-.42a1.267,1.267,0,0,1,.577-.1.889.889,0,0,0,.955-.731,4.49,4.49,0,0,1,.2-.423c.112-.267.31-.487.587-.421a1.179,1.179,0,0,1,.585.435c.178.234.267.54.423.793a.61.61,0,0,0,.344.244c.332.074.674.1,1.009.155a.587.587,0,0,1,.364,1,4.188,4.188,0,0,1-.586.579.683.683,0,0,0-.244.824,2.057,2.057,0,0,1,.117.693.941.941,0,0,1-.231.641.91.91,0,0,1-.684.018c-.283-.084-.535-.284-.811-.389a.732.732,0,0,0-.491,0c-.326.133-.624.337-.945.478a.594.594,0,0,1-.83-.544Zm1.48-1.211h1.121a.886.886,0,0,1,.31-.98l-.9-.668-.865.629C231.058,284.768,231.182,285.137,231.291,285.466Z" transform="translate(-207.683 -256.038)"/>
      <rect id="Rectangle_6537" data-name="Rectangle 6537" class="cls-6" width="17.341" height="15.674" transform="translate(40.372 34.93)"/>
      <path id="Path_1225" data-name="Path 1225" class="cls-7" d="M455.413,199.227a10.752,10.752,0,0,0-21.495-.167h-.008v15.174h7.67V209.7a10.775,10.775,0,0,0,6.169,0v4.7h7.67V199.227Z" transform="translate(-394.368 -171.3)"/>
      <path id="Path_1226" data-name="Path 1226" class="cls-8" d="M442.816,263.423s-.173,5.89,6.585,9.358c1.559.693,4.332,1.56,6.757,0,1.56-.866,4.592-2.339,6.328-8.056-1.386.173-8.144.693-8.663-6.585C451.393,260.217,447.408,263.335,442.816,263.423Z" transform="translate(-402.48 -234.546)"/>
      <path id="Path_1227" data-name="Path 1227" class="cls-5" d="M407.881,472.33l5.335,21.677-6.506,6.67s11.509,1.838,12.342,1.838,13.841-1.668,13.841-1.668l-6.753-6.92,5.335-21.181H426.14v3.168l-6.337,2.169-6.506-2.169v-3.5Z" transform="translate(-369.593 -429.646)"/>
      <path id="Path_1228" data-name="Path 1228" class="cls-8" d="M291.785,476.826l3.832,14.84L287.45,505s-6.169.167-7.337-.5-1.584-3.922.75-4.252a21.682,21.682,0,0,0,3.669,0l4.168-8.5s-.5-12.506,0-13.006S289.868,476.743,291.785,476.826Z" transform="translate(-253.422 -433.739)"/>
      <path id="Path_1229" data-name="Path 1229" class="cls-8" d="M647.832,476.826,644,491.667,652.17,505s6.169.167,7.336-.5,1.585-3.922-.75-4.252a21.677,21.677,0,0,1-3.668,0l-4.169-8.5s.5-12.506,0-13.006S649.752,476.743,647.832,476.826Z" transform="translate(-585.733 -433.739)"/>
      <path id="Path_1230" data-name="Path 1230" class="cls-8" d="M334.414,787.6l-21.177,2.835-18.509-2.668c-3-.333-5-.667-5-3.334a3.1,3.1,0,0,1,.559-1.823,3.056,3.056,0,0,1,.218-.274,3.449,3.449,0,0,1,3.093-1.087l5.838.854,13.636,2s9.149-1.275,14.322-1.989l2.52-.347c2.668-.333,6.169-.5,6.669,1.668.029.151.052.3.067.437A3.184,3.184,0,0,1,334.414,787.6Z" transform="translate(-263.035 -710.994)"/>
      <path id="Path_1231" data-name="Path 1231" class="cls-6" d="M549.108,813.259l3.217,5.915-.385.051-3.089-6.015Z" transform="translate(-499.064 -740.145)"/>
      <path id="Path_1232" data-name="Path 1232" class="cls-6" d="M305.138,782.1c-3.687,2.366-7.881,1.011-9.148.507a3.055,3.055,0,0,1,.217-.274,3.449,3.449,0,0,1,3.093-1.087Z" transform="translate(-268.741 -710.994)"/>
      <path id="Path_1233" data-name="Path 1233" class="cls-6" d="M721.6,787.473c-5.2,1.668-8.078-.475-9.256-1.758l2.52-.347c2.667-.333,6.169-.5,6.669,1.668C721.558,787.19,721.579,787.336,721.6,787.473Z" transform="translate(-647.983 -714.604)"/>
    </g>
  </g>
</svg>
