<svg xmlns="http://www.w3.org/2000/svg" width="38" height="38" viewBox="0 0 38 38">
    <defs>
        <linearGradient id="u9rc68jd9a" x1=".5" x2=".5" y2="1" gradientUnits="objectBoundingBox">
            <stop offset="0" stop-color="#f6eee7"/>
            <stop offset="1" stop-color="#f2d3a7"/>
        </linearGradient>
    </defs>
    <g data-name="Group 705">
        <circle cx="19" cy="19" r="19" style="fill:url(#u9rc68jd9a)" data-name="Group 17 Copy"/>
        <g transform="translate(10 10)">
            <path data-name="Combined Shape" d="M11.48 16.593v-1.252h5.113v1.252zM0 10.8a8.355 8.355 0 0 1 1.192-3.56 11.749 11.749 0 0 1 2.664-3.349.407.407 0 0 0 .044-.048h2.372l-.512.868a.351.351 0 0 0 .606.356l.407-.689.873 1.93a.353.353 0 0 0 .32.206.345.345 0 0 0 .145-.031.351.351 0 0 0 .176-.465L7.3 3.843h.4a.391.391 0 0 0 .048.047 11.705 11.705 0 0 1 2.662 3.345 8.433 8.433 0 0 1 1.19 3.491h-.472a.351.351 0 0 0-.351.351v2.867A5.606 5.606 0 0 1 5.8 16.593 5.544 5.544 0 0 1 0 10.8zm11.48 3.835v-1.25h5.113v1.253zm0-1.956v-1.25h5.113v1.253zM3.441 3.14V1.923h4.72V3.14zm1-1.92c-.081-.124-.2-.278-.359-.489S3.708.243 3.551 0h4.5c-.158.243-.364.511-.533.733s-.278.364-.36.488z" transform="translate(.703 .703)" style="fill:#f7d7ae"/>
            <path d="M11.832 18a.352.352 0 0 1-.352-.352v-1.8A6.415 6.415 0 0 1 6.5 18a6.527 6.527 0 0 1-4.672-1.828A6.51 6.51 0 0 1 0 11.507a8.9 8.9 0 0 1 1.28-3.9 13.4 13.4 0 0 1 2.329-3.11.35.35 0 0 1-.168-.3V2.275a.352.352 0 0 1 .351-.352h.482l-.046-.06A5.3 5.3 0 0 1 3.344.448.352.352 0 0 1 3.683 0h5.642a.352.352 0 0 1 .338.448 5.3 5.3 0 0 1-.883 1.415l-.046.06h.482a.352.352 0 0 1 .351.352v1.92a.35.35 0 0 1-.166.3A13.35 13.35 0 0 1 11.729 7.6a9.077 9.077 0 0 1 1.278 3.831h4.641a.352.352 0 0 1 .352.352v5.867a.352.352 0 0 1-.352.352z" style="fill:#000036"/>
            <circle data-name="Oval" cx="3.799" cy="3.799" r="3.799" transform="translate(2.705 7.654)" style="fill:#fcf1d9"/>
            <text data-name="₹" transform="translate(4.875 14.25)" style="font-size:5.25px;font-family:SegoeUI,Segoe UI;fill:#000036"><tspan x="0" y="0">₹</tspan></text>
        </g>
    </g>
</svg>
